<svg version="1.1" id="Layer_1" xmlns="http://www.w3.org/2000/svg" xmlns:xlink="http://www.w3.org/1999/xlink" x="0px" y="0px"
	 width="100%" viewBox="0 0 960 540" enable-background="new 0 0 960 540" xml:space="preserve">
<path fill="#FFFFFF" opacity="1.000000" stroke="none" 
	d="
M617.000000,541.000000 
	C411.333344,541.000000 206.166672,541.000000 1.000000,541.000000 
	C1.000000,361.000000 1.000000,181.000000 1.000000,1.000000 
	C321.000000,1.000000 641.000000,1.000000 961.000000,1.000000 
	C961.000000,181.000000 961.000000,361.000000 961.000000,541.000000 
	C846.500000,541.000000 732.000000,541.000000 617.000000,541.000000 
M674.012451,219.023575 
	C674.012451,219.023575 674.065613,219.026550 674.778442,218.935928 
	C680.041016,215.142731 680.697266,210.117065 676.166870,206.464020 
	C676.114746,206.299545 676.062622,206.135056 675.804932,205.506348 
	C675.515747,205.347229 675.226624,205.188110 674.259644,204.808105 
	C669.844238,202.777542 665.811279,202.980865 662.737793,207.156754 
	C659.913513,210.994064 660.640991,214.391083 665.329590,219.502380 
	C665.686157,219.592728 666.042664,219.683060 666.941895,219.878967 
	C667.294312,219.986649 667.646790,220.094330 668.397461,220.621429 
	C669.263855,220.510406 670.130310,220.399384 671.590332,220.120239 
	C671.994568,220.046127 672.398743,219.972000 673.330200,219.832611 
	C673.564087,219.579422 673.797974,219.326248 674.012451,219.023575 
M488.500000,279.998962 
	C425.516144,279.998077 362.532318,279.992584 299.548462,280.000916 
	C289.395660,280.002258 284.157532,285.217926 284.109528,295.385651 
	C284.065460,304.716400 284.066559,314.047638 284.105164,323.378418 
	C284.146851,333.448517 289.301849,338.589355 299.519562,338.591187 
	C415.823151,338.612335 532.126709,338.612213 648.430298,338.598145 
	C657.366577,338.597076 663.434937,332.439087 663.459045,323.469025 
	C663.483643,314.304810 663.060913,305.118225 663.569153,295.982361 
	C664.082825,286.749298 655.077881,279.795746 647.458679,279.839172 
	C594.807190,280.139526 542.153198,279.998291 488.500000,279.998962 
M325.116791,214.350098 
	C312.562134,205.419052 298.324371,209.078278 284.355347,208.212738 
	C284.355347,228.318344 284.355347,247.703262 284.355347,267.702240 
	C292.225739,267.702240 299.864960,268.148773 307.432343,267.601471 
	C319.928223,266.697693 330.265594,261.603180 334.273438,248.859741 
	C338.301208,236.052994 336.499084,224.134674 325.116791,214.350098 
M570.723816,248.769333 
	C568.289001,245.387833 565.854248,242.006332 563.413818,238.617096 
	C575.405029,229.963333 569.539001,215.643753 560.605530,214.185959 
	C550.452637,212.529160 540.009216,212.652420 529.680054,212.001144 
	C529.680054,231.362701 529.680054,249.284866 529.680054,267.239899 
	C539.063416,267.239899 548.224548,267.945709 557.227722,267.055084 
	C567.671753,266.021881 571.744080,260.062531 570.723816,248.769333 
M467.250763,248.874390 
	C464.822906,246.766617 465.236633,244.959885 467.338135,242.671310 
	C472.679657,236.854233 477.761322,230.798553 483.273651,224.462982 
	C474.713928,223.059906 467.619080,223.065567 463.122864,231.438583 
	C461.267181,234.894424 458.205933,237.702896 455.693024,240.805817 
	C455.339600,240.635864 454.986206,240.465912 454.632782,240.295959 
	C454.632782,230.047012 454.632782,219.798065 454.632782,209.507050 
	C450.775909,209.507050 447.392151,209.507050 444.011902,209.507050 
	C444.011902,229.054352 444.011902,248.254730 444.011902,267.335388 
	C447.824554,267.335388 451.221985,267.335388 455.103851,267.335388 
	C455.103851,261.697266 455.103851,256.478943 455.103851,249.825302 
	C459.824890,255.663040 463.598419,260.424225 467.498108,265.079742 
	C468.395416,266.151031 469.671448,267.515961 470.866577,267.614655 
	C474.763031,267.936523 478.702698,267.735229 484.111053,267.735229 
	C478.044250,260.934448 472.911041,255.180267 467.250763,248.874390 
M611.942993,227.535034 
	C610.807312,226.844131 609.720459,226.051620 608.528320,225.478134 
	C596.944031,219.905502 582.929138,224.472015 577.744629,235.475845 
	C572.361389,246.901459 576.760620,260.866882 587.369812,266.031281 
	C597.695007,271.057434 610.536133,267.865814 616.780334,258.721344 
	C623.209351,249.306229 621.379395,236.118073 611.942993,227.535034 
M404.374023,264.068787 
	C404.372986,258.078064 404.369690,252.087311 404.371429,246.096573 
	C404.374023,237.065598 407.559753,232.738617 414.166870,232.784943 
	C420.562256,232.829788 423.688751,237.279037 423.683411,246.315231 
	C423.679230,253.384659 423.682587,260.454102 423.682587,267.471771 
	C427.732452,267.471771 430.994141,267.471771 434.472900,267.471771 
	C434.472900,257.080994 435.042755,246.943115 434.278778,236.906769 
	C433.741760,229.851837 428.876312,225.430786 421.795441,223.684998 
	C415.655334,222.171097 410.378937,224.198181 405.370758,227.415161 
	C402.439056,221.029221 397.512512,225.061508 393.540192,223.994904 
	C393.540192,238.956970 393.540192,253.158707 393.540192,267.744629 
	C396.594910,267.744629 399.269806,267.987854 401.856598,267.616760 
	C402.802124,267.481140 403.538330,265.886475 404.374023,264.068787 
M517.304688,237.818298 
	C518.592102,237.723801 519.879456,237.629303 521.379272,237.519226 
	C521.246338,236.258484 521.276306,235.254349 521.021973,234.328293 
	C518.301819,224.422989 505.367249,219.891785 494.442780,225.069366 
	C489.336304,227.489548 486.587402,231.342590 486.824554,237.312973 
	C487.046326,242.897141 490.442780,245.714050 494.979218,247.481354 
	C498.835999,248.983871 503.044556,249.621033 506.823364,251.269424 
	C508.565277,252.029297 509.652588,254.289856 511.036743,255.869965 
	C509.228210,257.077484 507.518066,259.034332 505.584290,259.288300 
	C503.523804,259.558960 500.131012,258.894257 499.268738,257.463470 
	C495.794647,251.698868 490.895081,253.972290 484.764740,253.907715 
	C486.715668,257.447540 487.705017,260.476410 489.675659,262.590576 
	C495.979553,269.353607 509.341858,270.324371 516.905029,264.943481 
	C522.232361,261.153290 523.955261,253.583588 519.875061,248.698853 
	C517.783325,246.194672 514.394836,244.549530 511.301758,243.165680 
	C507.841827,241.617676 503.928467,241.093643 500.442139,239.591049 
	C496.974579,238.096542 496.561035,234.591507 499.542175,233.176086 
	C503.046875,231.512115 507.290833,231.189667 509.461884,234.731400 
	C511.398132,237.889984 513.638184,237.929459 517.304688,237.818298 
M623.132996,224.209076 
	C626.569397,229.801834 629.808960,235.529587 633.515930,240.936844 
	C635.746094,244.189911 636.330322,246.667969 633.722534,250.150055 
	C629.697266,255.524963 626.314575,261.381104 622.214661,267.720703 
	C624.702881,267.720703 626.213501,267.501617 627.637390,267.760223 
	C632.688354,268.677399 635.720581,266.560364 637.657410,261.957306 
	C638.699402,259.481171 640.434937,257.296875 642.216064,254.397079 
	C647.580200,262.156189 650.900085,272.107635 662.992004,266.692566 
	C658.472107,259.796082 653.849243,252.742599 649.229431,245.693649 
	C653.895691,238.530624 658.445740,231.546005 662.831238,224.814011 
	C650.593811,219.761093 648.224182,229.849808 643.583496,237.005890 
	C642.278503,235.181824 640.998840,233.974503 640.424988,232.493683 
	C637.390564,224.664169 631.497375,222.653946 623.132996,224.209076 
M342.873779,265.183228 
	C345.514496,270.677582 349.938416,266.261017 353.888977,268.107239 
	C353.888977,259.969727 353.790222,252.849228 353.916107,245.732681 
	C354.048279,238.258163 356.698273,235.550842 364.047913,234.954758 
	C365.023163,234.875656 365.996033,234.766953 366.994507,234.669556 
	C366.994507,230.806595 366.994507,227.122177 366.994507,222.075424 
	C362.071167,224.412994 358.048492,226.322937 354.115692,228.190216 
	C353.935028,227.041168 353.712860,225.628189 353.488708,224.202530 
	C349.886353,224.202530 346.629150,224.202530 342.866943,224.202530 
	C342.866943,237.718002 342.866943,250.979538 342.873779,265.183228 
M383.954224,232.553925 
	C383.954224,229.798569 383.954224,227.043228 383.954224,224.333282 
	C379.849640,224.333282 376.472046,224.333282 373.240662,224.333282 
	C373.240662,238.917999 373.240662,253.118454 373.240662,267.333557 
	C376.961823,267.333557 380.319763,267.333557 383.954559,267.333557 
	C383.954559,255.777725 383.954559,244.659836 383.954224,232.553925 
M385.562958,212.299423 
	C385.254517,210.390808 385.616333,207.738007 384.496948,206.729858 
	C382.228241,204.686630 379.838287,202.426788 375.762939,204.228378 
	C370.622559,206.500809 370.315796,210.669632 371.621185,214.446854 
	C372.447723,216.838501 376.058472,219.744675 378.441223,219.763260 
	C381.720673,219.788788 385.601196,217.892960 385.562958,212.299423 
z"/>
<path fill="#227444" opacity="1.000000" stroke="none" 
	d="
M489.000000,279.998962 
	C542.153198,279.998291 594.807190,280.139526 647.458679,279.839172 
	C655.077881,279.795746 664.082825,286.749298 663.569153,295.982361 
	C663.060913,305.118225 663.483643,314.304810 663.459045,323.469025 
	C663.434937,332.439087 657.366577,338.597076 648.430298,338.598145 
	C532.126709,338.612213 415.823151,338.612335 299.519562,338.591187 
	C289.301849,338.589355 284.146851,333.448517 284.105164,323.378418 
	C284.066559,314.047638 284.065460,304.716400 284.109528,295.385651 
	C284.157532,285.217926 289.395660,280.002258 299.548462,280.000916 
	C362.532318,279.992584 425.516144,279.998077 489.000000,279.998962 
M380.500122,283.597473 
	C353.673340,283.593842 326.846527,283.602570 300.019745,283.579681 
	C291.082642,283.572052 287.480957,286.957916 287.401489,295.803711 
	C287.323669,304.467560 287.353851,313.132843 287.398346,321.797180 
	C287.450836,332.017487 290.650909,335.181000 300.914642,335.182709 
	C352.068817,335.191162 403.223022,335.185242 454.377197,335.185547 
	C518.528198,335.185944 582.679260,335.190552 646.830261,335.185242 
	C656.871887,335.184418 660.175964,331.821625 660.180908,321.669586 
	C660.185181,313.005035 660.204102,304.340424 660.177063,295.675964 
	C660.151611,287.535583 656.133850,283.587219 647.935181,283.587433 
	C559.123474,283.589722 470.311829,283.593750 380.500122,283.597473 
z"/>
<path fill="#4BA470" opacity="1.000000" stroke="none" 
	d="
M325.400940,214.566467 
	C336.499084,224.134674 338.301208,236.052994 334.273438,248.859741 
	C330.265594,261.603180 319.928223,266.697693 307.432343,267.601471 
	C299.864960,268.148773 292.225739,267.702240 284.355347,267.702240 
	C284.355347,247.703262 284.355347,228.318344 284.355347,208.212738 
	C298.324371,209.078278 312.562134,205.419052 325.400940,214.566467 
M296.032410,232.512634 
	C296.032410,240.635345 296.032410,248.758057 296.032410,256.752777 
	C306.147614,259.295898 316.111176,256.536682 320.466095,250.236145 
	C325.211761,243.370255 325.049835,232.014206 320.109894,225.257980 
	C315.708801,219.238739 305.566650,216.608246 296.032440,219.236267 
	C296.032440,223.247971 296.032440,227.383224 296.032410,232.512634 
z"/>
<path fill="#207745" opacity="1.000000" stroke="none" 
	d="
M570.836670,249.132919 
	C571.744080,260.062531 567.671753,266.021881 557.227722,267.055084 
	C548.224548,267.945709 539.063416,267.239899 529.680054,267.239899 
	C529.680054,249.284866 529.680054,231.362701 529.680054,212.001144 
	C540.009216,212.652420 550.452637,212.529160 560.605530,214.185959 
	C569.539001,215.643753 575.405029,229.963333 563.413818,238.617096 
	C565.854248,242.006332 568.289001,245.387833 570.836670,249.132919 
M540.525635,256.782135 
	C541.157654,257.406555 541.780029,258.557098 542.423279,258.568878 
	C546.227539,258.638824 550.067444,258.706665 553.835388,258.264221 
	C557.531372,257.830231 559.843506,255.553925 559.921204,251.601700 
	C560.001587,247.513062 557.822510,244.708115 553.961548,244.227524 
	C549.642090,243.689835 545.204102,244.104080 540.461243,244.104080 
	C540.461243,248.299057 540.461243,252.094086 540.525635,256.782135 
M540.449463,226.738434 
	C540.449463,229.367111 540.449463,231.995789 540.449463,235.070862 
	C544.889526,235.070862 548.853699,235.311096 552.774292,235.000656 
	C556.410339,234.712769 558.537292,232.211655 558.655212,228.675735 
	C558.771606,225.186127 557.008606,222.511353 553.295837,221.949615 
	C550.516174,221.529053 547.654724,221.676178 544.855835,221.347839 
	C541.314758,220.932465 539.919983,222.383041 540.449463,226.738434 
z"/>
<path fill="#4BA470" opacity="1.000000" stroke="none" 
	d="
M467.514313,249.150238 
	C472.911041,255.180267 478.044250,260.934448 484.111053,267.735229 
	C478.702698,267.735229 474.763031,267.936523 470.866577,267.614655 
	C469.671448,267.515961 468.395416,266.151031 467.498108,265.079742 
	C463.598419,260.424225 459.824890,255.663040 455.103851,249.825302 
	C455.103851,256.478943 455.103851,261.697266 455.103851,267.335388 
	C451.221985,267.335388 447.824554,267.335388 444.011902,267.335388 
	C444.011902,248.254730 444.011902,229.054352 444.011902,209.507050 
	C447.392151,209.507050 450.775909,209.507050 454.632782,209.507050 
	C454.632782,219.798065 454.632782,230.047012 454.632782,240.295959 
	C454.986206,240.465912 455.339600,240.635864 455.693024,240.805817 
	C458.205933,237.702896 461.267181,234.894424 463.122864,231.438583 
	C467.619080,223.065567 474.713928,223.059906 483.273651,224.462982 
	C477.761322,230.798553 472.679657,236.854233 467.338135,242.671310 
	C465.236633,244.959885 464.822906,246.766617 467.514313,249.150238 
z"/>
<path fill="#1E7544" opacity="1.000000" stroke="none" 
	d="
M612.228027,227.751450 
	C621.379395,236.118073 623.209351,249.306229 616.780334,258.721344 
	C610.536133,267.865814 597.695007,271.057434 587.369812,266.031281 
	C576.760620,260.866882 572.361389,246.901459 577.744629,235.475845 
	C582.929138,224.472015 596.944031,219.905502 608.528320,225.478134 
	C609.720459,226.051620 610.807312,226.844131 612.228027,227.751450 
M587.886963,239.812073 
	C585.629517,248.184036 587.448669,254.703735 592.806763,257.444397 
	C598.102600,260.153198 604.494751,258.208588 607.425232,252.997131 
	C610.852905,246.901459 609.100647,237.859573 603.857117,234.584686 
	C598.391663,231.171204 592.415649,232.872192 587.886963,239.812073 
z"/>
<path fill="#4BA470" opacity="1.000000" stroke="none" 
	d="
M404.372040,264.513123 
	C403.538330,265.886475 402.802124,267.481140 401.856598,267.616760 
	C399.269806,267.987854 396.594910,267.744629 393.540192,267.744629 
	C393.540192,253.158707 393.540192,238.956970 393.540192,223.994904 
	C397.512512,225.061508 402.439056,221.029221 405.370758,227.415161 
	C410.378937,224.198181 415.655334,222.171097 421.795441,223.684998 
	C428.876312,225.430786 433.741760,229.851837 434.278778,236.906769 
	C435.042755,246.943115 434.472900,257.080994 434.472900,267.471771 
	C430.994141,267.471771 427.732452,267.471771 423.682587,267.471771 
	C423.682587,260.454102 423.679230,253.384659 423.683411,246.315231 
	C423.688751,237.279037 420.562256,232.829788 414.166870,232.784943 
	C407.559753,232.738617 404.374023,237.065598 404.371429,246.096573 
	C404.369690,252.087311 404.372986,258.078064 404.372040,264.513123 
z"/>
<path fill="#4BA470" opacity="1.000000" stroke="none" 
	d="
M516.884033,237.817017 
	C513.638184,237.929459 511.398132,237.889984 509.461884,234.731400 
	C507.290833,231.189667 503.046875,231.512115 499.542175,233.176086 
	C496.561035,234.591507 496.974579,238.096542 500.442139,239.591049 
	C503.928467,241.093643 507.841827,241.617676 511.301758,243.165680 
	C514.394836,244.549530 517.783325,246.194672 519.875061,248.698853 
	C523.955261,253.583588 522.232361,261.153290 516.905029,264.943481 
	C509.341858,270.324371 495.979553,269.353607 489.675659,262.590576 
	C487.705017,260.476410 486.715668,257.447540 484.764740,253.907715 
	C490.895081,253.972290 495.794647,251.698868 499.268738,257.463470 
	C500.131012,258.894257 503.523804,259.558960 505.584290,259.288300 
	C507.518066,259.034332 509.228210,257.077484 511.036743,255.869965 
	C509.652588,254.289856 508.565277,252.029297 506.823364,251.269424 
	C503.044556,249.621033 498.835999,248.983871 494.979218,247.481354 
	C490.442780,245.714050 487.046326,242.897141 486.824554,237.312973 
	C486.587402,231.342590 489.336304,227.489548 494.442780,225.069366 
	C505.367249,219.891785 518.301819,224.422989 521.021973,234.328293 
	C521.276306,235.254349 521.246338,236.258484 521.379272,237.519226 
	C519.879456,237.629303 518.592102,237.723801 516.884033,237.817017 
z"/>
<path fill="#217646" opacity="1.000000" stroke="none" 
	d="
M623.482178,224.097488 
	C631.497375,222.653946 637.390564,224.664169 640.424988,232.493683 
	C640.998840,233.974503 642.278503,235.181824 643.583496,237.005890 
	C648.224182,229.849808 650.593811,219.761093 662.831238,224.814011 
	C658.445740,231.546005 653.895691,238.530624 649.229431,245.693649 
	C653.849243,252.742599 658.472107,259.796082 662.992004,266.692566 
	C650.900085,272.107635 647.580200,262.156189 642.216064,254.397079 
	C640.434937,257.296875 638.699402,259.481171 637.657410,261.957306 
	C635.720581,266.560364 632.688354,268.677399 627.637390,267.760223 
	C626.213501,267.501617 624.702881,267.720703 622.214661,267.720703 
	C626.314575,261.381104 629.697266,255.524963 633.722534,250.150055 
	C636.330322,246.667969 635.746094,244.189911 633.515930,240.936844 
	C629.808960,235.529587 626.569397,229.801834 623.482178,224.097488 
z"/>
<path fill="#4BA470" opacity="1.000000" stroke="none" 
	d="
M342.870361,264.712158 
	C342.866943,250.979538 342.866943,237.718002 342.866943,224.202530 
	C346.629150,224.202530 349.886353,224.202530 353.488708,224.202530 
	C353.712860,225.628189 353.935028,227.041168 354.115692,228.190216 
	C358.048492,226.322937 362.071167,224.412994 366.994507,222.075424 
	C366.994507,227.122177 366.994507,230.806595 366.994507,234.669556 
	C365.996033,234.766953 365.023163,234.875656 364.047913,234.954758 
	C356.698273,235.550842 354.048279,238.258163 353.916107,245.732681 
	C353.790222,252.849228 353.888977,259.969727 353.888977,268.107239 
	C349.938416,266.261017 345.514496,270.677582 342.870361,264.712158 
z"/>
<path fill="#4BA470" opacity="1.000000" stroke="none" 
	d="
M383.954407,233.047943 
	C383.954559,244.659836 383.954559,255.777725 383.954559,267.333557 
	C380.319763,267.333557 376.961823,267.333557 373.240662,267.333557 
	C373.240662,253.118454 373.240662,238.917999 373.240662,224.333282 
	C376.472046,224.333282 379.849640,224.333282 383.954224,224.333282 
	C383.954224,227.043228 383.954224,229.798569 383.954407,233.047943 
z"/>
<path fill="#DFEDE6" opacity="1.000000" stroke="none" 
	d="
M676.343628,206.950485 
	C680.697266,210.117065 680.041016,215.142731 674.242493,218.602615 
	C671.916199,218.236038 669.773865,218.811569 668.417664,218.027405 
	C666.363525,216.839691 663.765930,214.896240 663.421326,212.921066 
	C663.071716,210.917374 664.622253,207.427277 666.352844,206.520966 
	C668.316650,205.492462 671.405457,206.746368 674.001404,206.712616 
	C674.827271,206.701889 675.282898,211.057693 676.343628,206.950485 
M671.701416,214.308258 
	C672.086792,207.604767 672.086792,207.604767 667.069214,208.734436 
	C667.069214,210.817184 667.069214,212.924118 667.069214,214.135208 
	C668.869019,214.452103 670.355408,214.713806 671.701416,214.308258 
z"/>
<path fill="#83B299" opacity="1.000000" stroke="none" 
	d="
M385.561188,212.701080 
	C385.601196,217.892960 381.720673,219.788788 378.441223,219.763260 
	C376.058472,219.744675 372.447723,216.838501 371.621185,214.446854 
	C370.315796,210.669632 370.622559,206.500809 375.762939,204.228378 
	C379.838287,202.426788 382.228241,204.686630 384.496948,206.729858 
	C385.616333,207.738007 385.254517,210.390808 385.561188,212.701080 
M382.562775,208.468597 
	C380.951385,207.497238 379.423248,206.122543 377.685394,205.763641 
	C377.038574,205.630081 375.900970,207.873138 374.320190,209.374954 
	C371.877228,213.903641 372.611603,215.560928 378.643555,217.065826 
	C377.607941,214.340134 376.787750,212.181427 376.798187,209.837921 
	C378.203308,209.888245 379.608429,209.938568 380.783142,210.677597 
	C380.102020,212.736923 379.420929,214.796265 378.427277,217.800537 
	C384.299408,215.791885 384.865845,212.871933 382.562775,208.468597 
z"/>
<path fill="#589C77" opacity="1.000000" stroke="none" 
	d="
M676.255249,206.707245 
	C675.282898,211.057693 674.827271,206.701889 674.001404,206.712616 
	C671.405457,206.746368 668.316650,205.492462 666.352844,206.520966 
	C664.622253,207.427277 663.071716,210.917374 663.421326,212.921066 
	C663.765930,214.896240 666.363525,216.839691 668.417664,218.027405 
	C669.773865,218.811569 671.916199,218.236038 673.886108,218.647919 
	C674.065613,219.026550 674.012451,219.023575 673.777344,219.123978 
	C673.295837,219.448883 673.049438,219.673370 672.802979,219.897873 
	C672.398743,219.972000 671.994568,220.046127 670.920532,220.157196 
	C669.500244,220.196747 668.749695,220.199371 667.999207,220.201996 
	C667.646790,220.094330 667.294312,219.986649 666.494324,219.612030 
	C665.697510,219.243362 665.348328,219.141617 664.999084,219.039886 
	C660.640991,214.391083 659.913513,210.994064 662.737793,207.156754 
	C665.811279,202.980865 669.844238,202.777542 674.700256,205.150986 
	C675.430786,205.652771 675.720642,205.811676 676.010559,205.970581 
	C676.062622,206.135056 676.114746,206.299545 676.255249,206.707245 
z"/>
<path fill="#DFEDE6" opacity="1.000000" stroke="none" 
	d="
M668.198364,220.411713 
	C668.749695,220.199371 669.500244,220.196747 670.623718,220.241257 
	C670.130310,220.399384 669.263855,220.510406 668.198364,220.411713 
z"/>
<path fill="#DFEDE6" opacity="1.000000" stroke="none" 
	d="
M675.907715,205.738464 
	C675.720642,205.811676 675.430786,205.652771 675.039185,205.261429 
	C675.226624,205.188110 675.515747,205.347229 675.907715,205.738464 
z"/>
<path fill="#DFEDE6" opacity="1.000000" stroke="none" 
	d="
M665.164307,219.271133 
	C665.348328,219.141617 665.697510,219.243362 666.223022,219.559250 
	C666.042664,219.683060 665.686157,219.592728 665.164307,219.271133 
z"/>
<path fill="#DFEDE6" opacity="1.000000" stroke="none" 
	d="
M673.066589,219.865234 
	C673.049438,219.673370 673.295837,219.448883 673.787109,219.148712 
	C673.797974,219.326248 673.564087,219.579422 673.066589,219.865234 
z"/>
<path fill="#F9FCFB" opacity="1.000000" stroke="none" 
	d="
M381.000122,283.597412 
	C470.311829,283.593750 559.123474,283.589722 647.935181,283.587433 
	C656.133850,283.587219 660.151611,287.535583 660.177063,295.675964 
	C660.204102,304.340424 660.185181,313.005035 660.180908,321.669586 
	C660.175964,331.821625 656.871887,335.184418 646.830261,335.185242 
	C582.679260,335.190552 518.528198,335.185944 454.377197,335.185547 
	C403.223022,335.185242 352.068817,335.191162 300.914642,335.182709 
	C290.650909,335.181000 287.450836,332.017487 287.398346,321.797180 
	C287.353851,313.132843 287.323669,304.467560 287.401489,295.803711 
	C287.480957,286.957916 291.082642,283.572052 300.019745,283.579681 
	C326.846527,283.602570 353.673340,283.593842 381.000122,283.597412 
M368.972870,302.010803 
	C368.972870,302.010803 368.868988,301.885498 369.583496,301.947357 
	C370.399017,301.600586 371.214539,301.253784 372.805450,300.972839 
	C374.437469,301.818726 376.069458,302.664612 378.689636,304.022705 
	C377.295898,298.200958 373.989960,296.886444 370.436646,297.889374 
	C368.210114,298.517822 365.504089,300.820435 364.856995,302.935852 
	C363.684845,306.767975 366.916443,308.355835 370.211853,309.211426 
	C370.692352,309.336212 371.251923,309.382721 371.621918,309.665588 
	C372.851135,310.605377 374.161499,311.521637 375.076019,312.724304 
	C375.271301,312.981079 373.986450,315.092010 373.287720,315.147736 
	C371.852448,315.262207 370.319489,314.660400 368.888885,314.171570 
	C367.641602,313.745392 366.479645,313.069397 364.504608,312.138214 
	C365.188354,317.085297 367.815491,318.285217 370.923676,318.561859 
	C374.807587,318.907593 377.693298,317.328278 379.821472,312.895569 
	C380.213287,314.026001 380.406494,315.289398 381.050323,316.251129 
	C381.756989,317.306702 382.878876,318.084290 383.819855,318.983002 
	C384.444214,317.970306 385.445129,317.015106 385.610474,315.932343 
	C385.907959,313.984406 385.239990,311.804932 385.839172,310.010651 
	C386.452942,308.172852 387.850647,305.612701 389.350830,305.259125 
	C392.512146,304.513947 393.483978,307.336212 393.659790,309.978882 
	C393.841980,312.718109 393.700348,315.478882 393.700348,318.230225 
	C394.211914,318.374023 394.723480,318.517853 395.235046,318.661652 
	C395.801086,317.678986 396.727173,316.741669 396.857819,315.704132 
	C397.125549,313.577728 396.466858,311.224731 397.135376,309.292206 
	C397.709351,307.632996 399.599426,306.429077 400.907532,305.023834 
	C402.233704,306.404877 404.158600,307.577728 404.730011,309.221191 
	C405.399902,311.147888 404.704224,313.508362 404.979828,315.631500 
	C405.105713,316.601135 406.139709,317.452850 406.761841,318.358093 
	C407.295807,317.515564 408.209442,316.707581 408.289825,315.823792 
	C408.499420,313.519470 408.464661,311.173889 408.310394,308.859253 
	C407.916351,302.946503 403.757568,300.503052 398.246674,302.759491 
	C397.179199,303.196594 395.906982,303.483459 394.779938,303.363403 
	C390.323853,302.888702 385.887909,302.224609 381.685547,301.662994 
	C381.018890,305.847198 380.525970,308.940857 379.493500,311.906494 
	C379.281006,311.413025 379.068512,310.919586 378.797699,309.818970 
	C378.504059,309.557373 378.210419,309.295776 377.494934,308.842102 
	C377.225128,308.662628 377.046661,308.416809 376.632507,307.567230 
	C376.239197,307.464813 375.845886,307.362396 374.788452,307.191833 
	C373.526459,306.757324 372.264496,306.322784 370.645264,305.445465 
	C370.284698,305.367096 369.924103,305.288696 369.196564,305.074280 
	C368.965240,304.919861 368.827423,304.705353 368.912567,303.584381 
	C368.902588,303.015320 368.892609,302.446289 368.972870,302.010803 
M642.428589,321.374329 
	C642.638550,320.377777 643.359497,319.050476 642.966919,318.444000 
	C641.541077,316.241272 639.742310,314.279999 638.043945,312.177795 
	C638.844971,310.557953 639.676575,309.141083 640.268066,307.630280 
	C642.017090,303.163300 640.479248,298.050690 636.634277,295.223480 
	C632.705872,292.334961 627.538086,292.391144 623.685303,295.364288 
	C619.877380,298.302765 618.450684,303.398224 620.184448,307.867798 
	C621.886658,312.256195 626.763062,315.773468 631.187134,314.528229 
	C635.230103,313.390228 636.965149,315.238892 638.900146,317.862793 
	C639.776428,319.051178 640.824707,320.112793 642.428589,321.374329 
M440.756287,304.938721 
	C441.226776,307.881256 441.475677,310.884277 442.255585,313.742401 
	C442.684540,315.314423 443.701385,317.181335 445.014343,317.926178 
	C446.275452,318.641602 448.260620,318.080811 449.927612,318.080811 
	C450.136230,317.579620 450.344849,317.078430 450.553467,316.577240 
	C443.583679,314.833038 446.375488,309.788513 445.921753,305.823517 
	C447.409027,305.158356 448.726105,304.569305 449.686157,304.139893 
	C448.049530,302.045563 446.880981,300.185272 445.305023,298.782867 
	C444.896545,298.419403 443.159698,299.388092 442.128510,299.927490 
	C440.954376,300.541656 439.968140,301.756958 438.756042,302.004303 
	C436.489441,302.466858 434.118805,302.419464 431.110321,302.632477 
	C431.110321,307.155548 431.042389,311.923462 431.195587,316.684235 
	C431.214905,317.285004 432.321869,318.062256 433.075531,318.323853 
	C433.377075,318.428589 434.443176,317.415680 434.539001,316.812683 
	C434.771362,315.350067 434.787384,313.813049 434.624329,312.335358 
	C434.173401,308.248932 435.542694,305.559875 440.756287,304.938721 
M543.062927,301.627747 
	C538.777527,296.748413 533.293823,297.917633 527.786743,298.287354 
	C527.786743,305.047424 527.786743,311.468140 527.786743,318.367676 
	C533.430237,318.195312 539.201416,319.699005 543.171387,314.468781 
	C546.068237,310.652252 545.768372,306.398956 543.062927,301.627747 
M316.696533,308.246613 
	C316.976349,305.567413 318.149902,300.886444 317.385834,300.545288 
	C313.460236,298.792572 309.036560,298.155426 304.266083,297.002838 
	C304.266083,304.996643 304.266083,311.398193 304.266083,318.371796 
	C307.215607,318.371796 310.003052,318.564301 312.754700,318.332336 
	C318.758514,317.826202 320.475586,313.971924 316.696533,308.246613 
M417.728668,318.696075 
	C420.782410,318.403290 423.836121,318.110504 427.140137,317.793701 
	C427.140137,312.813080 427.140137,307.553772 427.140137,302.273895 
	C424.983521,302.378540 423.249481,302.802948 421.669800,302.477661 
	C416.201324,301.351562 412.535767,302.878998 411.200409,307.154572 
	C409.586578,312.321777 411.548920,316.183594 417.728668,318.696075 
M479.633026,306.889618 
	C479.857147,304.749725 480.751343,300.958496 480.198181,300.734039 
	C476.173157,299.100769 471.856842,298.185486 467.122070,296.905243 
	C467.122070,304.981903 467.122070,311.498749 467.122070,318.583435 
	C471.989624,317.553253 477.593079,320.536530 480.617584,315.352081 
	C481.640869,313.598053 479.673828,310.099548 479.633026,306.889618 
M572.701782,311.527496 
	C575.138855,311.527496 577.575989,311.527496 579.961304,311.527496 
	C580.353943,305.405670 578.344910,302.527374 573.814087,302.008331 
	C568.912048,301.446808 565.515625,303.817505 564.691833,308.375763 
	C563.786194,313.387054 566.062805,317.247009 570.591553,318.378601 
	C574.862488,319.445770 577.849304,317.834503 579.201599,313.548828 
	C575.651855,313.026154 571.201904,319.009735 568.258606,312.002991 
	C569.648132,311.817474 570.745422,311.670959 572.701782,311.527496 
M321.802124,312.089600 
	C323.151154,318.358551 323.151154,318.358551 336.701996,317.984558 
	C336.701996,313.418152 336.770996,308.821228 336.629608,304.230774 
	C336.607697,303.519806 335.622314,302.838562 335.082428,302.143585 
	C334.420044,302.879913 333.283264,303.558533 333.185333,304.363525 
	C332.906067,306.658905 333.478668,309.124054 332.880676,311.291931 
	C332.460938,312.813629 330.672546,313.957764 329.495392,315.270538 
	C328.110352,313.965698 326.095551,312.894257 325.503143,311.295685 
	C324.797424,309.391327 325.524384,307.003265 325.210693,304.887054 
	C325.046112,303.776581 323.984344,302.799103 323.327698,301.761566 
	C322.816162,301.958618 322.304626,302.155670 321.793091,302.352722 
	C321.793091,305.301971 321.793091,308.251221 321.802124,312.089600 
M350.882599,312.427216 
	C352.160797,309.131897 353.439026,305.836548 354.717224,302.541229 
	C354.249939,302.286957 353.782623,302.032684 353.315338,301.778412 
	C348.657776,303.559387 349.931519,309.667511 346.417267,312.854462 
	C345.520203,310.485443 344.803070,308.326996 343.889984,306.254944 
	C342.987183,304.206177 342.884186,300.905029 338.909088,302.604095 
	C340.209076,310.276733 347.848907,316.971100 342.284088,326.022186 
	C344.214325,325.336700 345.614594,324.469696 346.235168,323.216553 
	C347.857239,319.941132 349.138367,316.496918 350.882599,312.427216 
M501.640411,303.378448 
	C503.561157,310.691742 510.067841,317.245972 504.242920,325.867828 
	C508.577301,325.044739 516.340698,308.864807 516.549194,301.352722 
	C511.447723,304.021637 512.322876,309.700409 509.122040,313.230865 
	C508.022491,310.254944 506.987274,307.487488 505.978058,304.710632 
	C505.198120,302.564728 504.120361,301.111633 501.640411,303.378448 
M495.382111,317.346893 
	C496.975281,318.454651 498.928558,319.639893 499.191132,316.510437 
	C499.536407,312.394958 499.337555,308.224762 499.179474,304.085449 
	C499.154144,303.422272 498.121063,302.797546 497.553864,302.155060 
	C497.023193,302.823700 496.098175,303.456970 496.034393,304.167511 
	C495.827667,306.471313 496.426422,308.955719 495.767181,311.075867 
	C495.251617,312.733978 493.326782,313.953888 492.028137,315.368500 
	C490.667694,313.878326 488.541595,312.574707 488.122650,310.855164 
	C487.461548,308.141846 487.946777,305.149200 487.946777,301.933136 
	C484.721405,303.337250 483.352081,310.909546 485.111633,314.728119 
	C487.141754,319.133911 490.722839,319.309601 495.382111,317.346893 
M595.808289,316.295135 
	C596.199097,315.451447 596.589844,314.607758 597.601501,312.423553 
	C595.044006,313.568176 593.710815,314.609802 592.332031,314.674072 
	C590.423157,314.763031 587.059753,314.526306 586.823486,313.706848 
	C586.167847,311.433380 586.390747,308.641083 587.180420,306.371857 
	C587.429626,305.655853 590.598938,305.663361 592.373169,305.862488 
	C593.820435,306.024933 595.180298,306.966370 597.622009,308.006927 
	C595.475891,301.939423 591.767761,301.458130 587.838135,302.139343 
	C584.096680,302.787903 581.756653,305.604462 582.115112,309.198700 
	C582.397766,312.032379 583.690247,315.368713 585.684937,317.282379 
	C588.456848,319.941681 592.159485,319.160889 595.808289,316.295135 
M604.544189,305.326508 
	C605.718811,304.905334 606.893433,304.484131 607.870850,304.133636 
	C606.231628,302.028717 605.287659,300.323517 603.869690,299.236572 
	C603.295898,298.796753 600.947327,299.391815 600.666992,300.051575 
	C598.366211,305.466583 600.475769,310.964203 601.377747,316.233704 
	C601.846802,318.974060 605.387512,319.315613 607.028015,318.000061 
	C605.859741,314.622131 604.878662,312.140350 604.174866,309.582275 
	C603.878784,308.506042 604.168274,307.268707 604.544189,305.326508 
M558.094055,317.425598 
	C558.215393,314.446808 557.749817,311.274841 558.646118,308.551086 
	C559.347168,306.420715 561.736938,304.846100 563.589905,302.787323 
	C560.052551,302.787323 557.733948,302.787323 554.890503,302.787323 
	C554.890503,305.704865 554.888916,308.979919 554.891296,312.255005 
	C554.892212,313.582764 554.582764,315.028198 555.014465,316.198914 
	C555.327026,317.046570 556.627808,317.529846 558.094055,317.425598 
M551.095032,311.485931 
	C551.095032,308.417480 551.095032,305.349030 551.095032,302.280579 
	C550.594727,302.133392 550.094360,301.986206 549.594055,301.839020 
	C549.026611,302.820068 548.061523,303.765350 547.969482,304.789154 
	C547.734253,307.404907 547.701721,310.073212 547.948425,312.686493 
	C548.127197,314.579681 548.882507,316.418427 549.380676,318.281464 
	C549.952148,316.338409 550.523621,314.395355 551.095032,311.485931 
z"/>
<path fill="#F8FCFA" opacity="1.000000" stroke="none" 
	d="
M296.032410,232.015564 
	C296.032440,227.383224 296.032440,223.247971 296.032440,219.236267 
	C305.566650,216.608246 315.708801,219.238739 320.109894,225.257980 
	C325.049835,232.014206 325.211761,243.370255 320.466095,250.236145 
	C316.111176,256.536682 306.147614,259.295898 296.032410,256.752777 
	C296.032410,248.758057 296.032410,240.635345 296.032410,232.015564 
z"/>
<path fill="#EFF6F2" opacity="1.000000" stroke="none" 
	d="
M540.493408,256.335632 
	C540.461243,252.094086 540.461243,248.299057 540.461243,244.104080 
	C545.204102,244.104080 549.642090,243.689835 553.961548,244.227524 
	C557.822510,244.708115 560.001587,247.513062 559.921204,251.601700 
	C559.843506,255.553925 557.531372,257.830231 553.835388,258.264221 
	C550.067444,258.706665 546.227539,258.638824 542.423279,258.568878 
	C541.780029,258.557098 541.157654,257.406555 540.493408,256.335632 
z"/>
<path fill="#EFF6F2" opacity="1.000000" stroke="none" 
	d="
M540.449280,226.289642 
	C539.919983,222.383041 541.314758,220.932465 544.855835,221.347839 
	C547.654724,221.676178 550.516174,221.529053 553.295837,221.949615 
	C557.008606,222.511353 558.771606,225.186127 558.655212,228.675735 
	C558.537292,232.211655 556.410339,234.712769 552.774292,235.000656 
	C548.853699,235.311096 544.889526,235.070862 540.449463,235.070862 
	C540.449463,231.995789 540.449463,229.367111 540.449280,226.289642 
z"/>
<path fill="#F8FCFA" opacity="1.000000" stroke="none" 
	d="
M588.018250,239.433853 
	C592.415649,232.872192 598.391663,231.171204 603.857117,234.584686 
	C609.100647,237.859573 610.852905,246.901459 607.425232,252.997131 
	C604.494751,258.208588 598.102600,260.153198 592.806763,257.444397 
	C587.448669,254.703735 585.629517,248.184036 588.018250,239.433853 
z"/>
<path fill="#3D845C" opacity="1.000000" stroke="none" 
	d="
M671.771606,214.641876 
	C670.355408,214.713806 668.869019,214.452103 667.069214,214.135208 
	C667.069214,212.924118 667.069214,210.817184 667.069214,208.734436 
	C672.086792,207.604767 672.086792,207.604767 671.771606,214.641876 
z"/>
<path fill="#EFF6F2" opacity="1.000000" stroke="none" 
	d="
M375.967560,210.022720 
	C376.787750,212.181427 377.607941,214.340134 378.643555,217.065826 
	C372.611603,215.560928 371.877228,213.903641 374.659302,209.188339 
	C374.998444,209.001724 374.967773,209.011292 374.933838,209.317169 
	C375.260864,209.758530 375.621826,209.893997 375.988647,210.015381 
	C375.994537,210.001312 375.967560,210.022720 375.967560,210.022720 
z"/>
<path fill="#DFEDE6" opacity="1.000000" stroke="none" 
	d="
M383.004578,208.992035 
	C384.865845,212.871933 384.299408,215.791885 378.427277,217.800537 
	C379.420929,214.796265 380.102020,212.736923 380.890808,210.339355 
	C380.998444,210.001099 380.983337,210.013000 381.293976,210.039612 
	C382.066742,209.712326 382.528839,209.358459 382.995178,209.002441 
	C382.999359,209.000290 383.004578,208.992035 383.004578,208.992035 
z"/>
<path fill="#DFEDE6" opacity="1.000000" stroke="none" 
	d="
M381.005981,209.994995 
	C379.608429,209.938568 378.203308,209.888245 376.382874,209.930328 
	C375.967560,210.022720 375.994537,210.001312 376.015564,209.713776 
	C375.680328,209.287918 375.324036,209.149612 374.967773,209.011292 
	C374.967773,209.011292 374.998444,209.001724 374.992798,209.017090 
	C375.900970,207.873138 377.038574,205.630081 377.685394,205.763641 
	C379.423248,206.122543 380.951385,207.497238 382.783691,208.730316 
	C383.004578,208.992035 382.999359,209.000290 382.671417,208.869690 
	C381.890106,209.163742 381.436707,209.588379 380.983337,210.013000 
	C380.983337,210.013000 380.998444,210.001099 381.005981,209.994995 
z"/>
<path fill="#317A51" opacity="1.000000" stroke="none" 
	d="
M380.033081,312.034515 
	C380.525970,308.940857 381.018890,305.847198 381.685547,301.662994 
	C385.887909,302.224609 390.323853,302.888702 394.779938,303.363403 
	C395.906982,303.483459 397.179199,303.196594 398.246674,302.759491 
	C403.757568,300.503052 407.916351,302.946503 408.310394,308.859253 
	C408.464661,311.173889 408.499420,313.519470 408.289825,315.823792 
	C408.209442,316.707581 407.295807,317.515564 406.761841,318.358093 
	C406.139709,317.452850 405.105713,316.601135 404.979828,315.631500 
	C404.704224,313.508362 405.399902,311.147888 404.730011,309.221191 
	C404.158600,307.577728 402.233704,306.404877 400.907532,305.023834 
	C399.599426,306.429077 397.709351,307.632996 397.135376,309.292206 
	C396.466858,311.224731 397.125549,313.577728 396.857819,315.704132 
	C396.727173,316.741669 395.801086,317.678986 395.235046,318.661652 
	C394.723480,318.517853 394.211914,318.374023 393.700348,318.230225 
	C393.700348,315.478882 393.841980,312.718109 393.659790,309.978882 
	C393.483978,307.336212 392.512146,304.513947 389.350830,305.259125 
	C387.850647,305.612701 386.452942,308.172852 385.839172,310.010651 
	C385.239990,311.804932 385.907959,313.984406 385.610474,315.932343 
	C385.445129,317.015106 384.444214,317.970306 383.819855,318.983002 
	C382.878876,318.084290 381.756989,317.306702 381.050323,316.251129 
	C380.406494,315.289398 380.213287,314.026001 379.386871,313.183533 
	C378.952271,313.471497 378.961029,313.545715 379.430481,313.600769 
	C379.929657,313.119781 379.959351,312.583801 379.996918,312.037292 
	C380.004761,312.026794 380.033081,312.034515 380.033081,312.034515 
z"/>
<path fill="#3D845C" opacity="1.000000" stroke="none" 
	d="
M642.111816,321.303101 
	C640.824707,320.112793 639.776428,319.051178 638.900146,317.862793 
	C636.965149,315.238892 635.230103,313.390228 631.187134,314.528229 
	C626.763062,315.773468 621.886658,312.256195 620.184448,307.867798 
	C618.450684,303.398224 619.877380,298.302765 623.685303,295.364288 
	C627.538086,292.391144 632.705872,292.334961 636.634277,295.223480 
	C640.479248,298.050690 642.017090,303.163300 640.268066,307.630280 
	C639.676575,309.141083 638.844971,310.557953 638.043945,312.177795 
	C639.742310,314.279999 641.541077,316.241272 642.966919,318.444000 
	C643.359497,319.050476 642.638550,320.377777 642.111816,321.303101 
M622.461121,306.645447 
	C624.118958,310.355347 627.039001,312.948669 630.981995,311.858673 
	C633.605103,311.133575 636.856567,308.748566 637.633972,306.385254 
	C638.412292,304.019196 637.338135,299.673950 635.480042,298.175903 
	C633.410767,296.507629 629.254395,296.097046 626.523560,296.899109 
	C622.635742,298.040955 621.548035,301.854797 622.461121,306.645447 
z"/>
<path fill="#3D845C" opacity="1.000000" stroke="none" 
	d="
M440.320587,304.933075 
	C435.542694,305.559875 434.173401,308.248932 434.624329,312.335358 
	C434.787384,313.813049 434.771362,315.350067 434.539001,316.812683 
	C434.443176,317.415680 433.377075,318.428589 433.075531,318.323853 
	C432.321869,318.062256 431.214905,317.285004 431.195587,316.684235 
	C431.042389,311.923462 431.110321,307.155548 431.110321,302.632477 
	C434.118805,302.419464 436.489441,302.466858 438.756042,302.004303 
	C439.968140,301.756958 440.954376,300.541656 442.128510,299.927490 
	C443.159698,299.388092 444.896545,298.419403 445.305023,298.782867 
	C446.880981,300.185272 448.049530,302.045563 449.686157,304.139893 
	C448.726105,304.569305 447.409027,305.158356 445.921753,305.823517 
	C446.375488,309.788513 443.583679,314.833038 450.553467,316.577240 
	C450.344849,317.078430 450.136230,317.579620 449.927612,318.080811 
	C448.260620,318.080811 446.275452,318.641602 445.014343,317.926178 
	C443.701385,317.181335 442.684540,315.314423 442.255585,313.742401 
	C441.475677,310.884277 441.226776,307.881256 440.320587,304.933075 
z"/>
<path fill="#2B774C" opacity="1.000000" stroke="none" 
	d="
M543.309753,301.938660 
	C545.768372,306.398956 546.068237,310.652252 543.171387,314.468781 
	C539.201416,319.699005 533.430237,318.195312 527.786743,318.367676 
	C527.786743,311.468140 527.786743,305.047424 527.786743,298.287354 
	C533.293823,297.917633 538.777527,296.748413 543.309753,301.938660 
M531.020569,308.463104 
	C531.020569,310.759735 531.020569,313.056335 531.020569,317.231934 
	C534.959167,315.255859 538.833740,314.501160 540.344910,312.196625 
	C541.676331,310.166138 541.412842,305.634094 539.931458,303.621735 
	C538.431580,301.584198 534.573486,301.282684 531.019653,299.946869 
	C531.019653,303.563568 531.019653,305.541016 531.020569,308.463104 
z"/>
<path fill="#317A51" opacity="1.000000" stroke="none" 
	d="
M316.922852,308.514465 
	C320.475586,313.971924 318.758514,317.826202 312.754700,318.332336 
	C310.003052,318.564301 307.215607,318.371796 304.266083,318.371796 
	C304.266083,311.398193 304.266083,304.996643 304.266083,297.002838 
	C309.036560,298.155426 313.460236,298.792572 317.385834,300.545288 
	C318.149902,300.886444 316.976349,305.567413 316.922852,308.514465 
M308.928772,309.257599 
	C308.303284,311.173248 307.677795,313.088898 306.782257,315.831726 
	C309.740173,315.666870 311.553345,315.867218 313.179657,315.407196 
	C315.874420,314.644989 316.570740,311.609497 314.366028,310.204163 
	C313.114685,309.406525 311.287964,309.511505 308.928772,309.257599 
M308.895752,300.422791 
	C308.339325,302.339996 307.782898,304.257202 307.226501,306.174408 
	C307.764282,306.612579 308.302094,307.050720 308.839874,307.488892 
	C310.875183,306.340515 314.282410,305.531982 314.668030,303.975037 
	C315.545746,300.431274 312.003998,300.743561 308.895752,300.422791 
z"/>
<path fill="#367D55" opacity="1.000000" stroke="none" 
	d="
M417.357910,318.619385 
	C411.548920,316.183594 409.586578,312.321777 411.200409,307.154572 
	C412.535767,302.878998 416.201324,301.351562 421.669800,302.477661 
	C423.249481,302.802948 424.983521,302.378540 427.140137,302.273895 
	C427.140137,307.553772 427.140137,312.813080 427.140137,317.793701 
	C423.836121,318.110504 420.782410,318.403290 417.357910,318.619385 
M415.008087,307.564209 
	C413.651093,310.562347 414.020599,313.553986 417.063477,314.731384 
	C418.649719,315.345123 422.216919,314.361328 422.838715,313.093414 
	C423.702209,311.332581 423.404175,308.067719 422.224915,306.454224 
	C420.367950,303.913605 417.550476,304.555969 415.008087,307.564209 
z"/>
<path fill="#227444" opacity="1.000000" stroke="none" 
	d="
M479.353180,307.143921 
	C479.673828,310.099548 481.640869,313.598053 480.617584,315.352081 
	C477.593079,320.536530 471.989624,317.553253 467.122070,318.583435 
	C467.122070,311.498749 467.122070,304.981903 467.122070,296.905243 
	C471.856842,298.185486 476.173157,299.100769 480.198181,300.734039 
	C480.751343,300.958496 479.857147,304.749725 479.353180,307.143921 
M470.870026,309.331085 
	C470.526215,311.313477 470.182434,313.295868 469.748260,315.799347 
	C471.860107,315.799347 473.334595,316.198517 474.385803,315.701843 
	C475.814453,315.026825 476.919525,313.666992 478.163361,312.600830 
	C477.006439,311.454559 475.977234,310.111938 474.640350,309.242310 
	C473.939880,308.786652 472.699707,309.160645 470.870026,309.331085 
M476.219818,301.053497 
	C474.356689,300.783173 472.493591,300.512848 470.313202,300.196503 
	C470.187469,301.707733 470.038177,302.655914 470.049774,303.602173 
	C470.061157,304.535461 470.235352,305.466766 470.330048,306.325775 
	C477.022552,307.088043 478.298920,306.084259 476.219818,301.053497 
z"/>
<path fill="#317A51" opacity="1.000000" stroke="none" 
	d="
M572.272278,311.525970 
	C570.745422,311.670959 569.648132,311.817474 568.258606,312.002991 
	C571.201904,319.009735 575.651855,313.026154 579.201599,313.548828 
	C577.849304,317.834503 574.862488,319.445770 570.591553,318.378601 
	C566.062805,317.247009 563.786194,313.387054 564.691833,308.375763 
	C565.515625,303.817505 568.912048,301.446808 573.814087,302.008331 
	C578.344910,302.527374 580.353943,305.405670 579.961304,311.527496 
	C577.575989,311.527496 575.138855,311.527496 572.272278,311.525970 
M568.344360,307.852081 
	C571.017395,308.351410 573.690369,308.850769 576.868164,309.444397 
	C574.639587,304.023285 572.659119,303.668030 568.344360,307.852081 
z"/>
<path fill="#367D55" opacity="1.000000" stroke="none" 
	d="
M378.961060,313.545715 
	C378.961029,313.545715 378.952271,313.471497 378.947632,313.434509 
	C377.693298,317.328278 374.807587,318.907593 370.923676,318.561859 
	C367.815491,318.285217 365.188354,317.085297 364.504608,312.138214 
	C366.479645,313.069397 367.641602,313.745392 368.888885,314.171570 
	C370.319489,314.660400 371.852448,315.262207 373.287720,315.147736 
	C373.986450,315.092010 375.271301,312.981079 375.076019,312.724304 
	C374.161499,311.521637 372.851135,310.605377 371.621918,309.665588 
	C371.251923,309.382721 370.692352,309.336212 370.211853,309.211426 
	C366.916443,308.355835 363.684845,306.767975 364.856995,302.935852 
	C365.504089,300.820435 368.210114,298.517822 370.436646,297.889374 
	C373.989960,296.886444 377.295898,298.200958 378.689636,304.022705 
	C376.069458,302.664612 374.437469,301.818726 372.213440,300.750061 
	C370.703949,300.980011 369.786469,301.432739 368.868988,301.885498 
	C368.868988,301.885498 368.972870,302.010803 368.668854,302.120850 
	C368.504272,302.964203 368.643707,303.697449 368.783142,304.430725 
	C368.827423,304.705353 368.965240,304.919861 369.549805,305.375916 
	C370.269501,305.747772 370.636017,305.817993 371.002502,305.888245 
	C372.264496,306.322784 373.526459,306.757324 375.307983,307.463196 
	C376.204834,307.857910 376.582153,307.981293 376.959503,308.104675 
	C377.046661,308.416809 377.225128,308.662628 377.765472,309.229187 
	C378.309357,309.886230 378.582703,310.156189 378.856049,310.426117 
	C379.068512,310.919586 379.281006,311.413025 379.763306,311.970520 
	C380.033081,312.034515 380.004761,312.026794 379.585632,311.975098 
	C379.098022,312.464203 379.029541,313.004944 378.961060,313.545715 
z"/>
<path fill="#3D845C" opacity="1.000000" stroke="none" 
	d="
M321.797607,311.645020 
	C321.793091,308.251221 321.793091,305.301971 321.793091,302.352722 
	C322.304626,302.155670 322.816162,301.958618 323.327698,301.761566 
	C323.984344,302.799103 325.046112,303.776581 325.210693,304.887054 
	C325.524384,307.003265 324.797424,309.391327 325.503143,311.295685 
	C326.095551,312.894257 328.110352,313.965698 329.495392,315.270538 
	C330.672546,313.957764 332.460938,312.813629 332.880676,311.291931 
	C333.478668,309.124054 332.906067,306.658905 333.185333,304.363525 
	C333.283264,303.558533 334.420044,302.879913 335.082458,302.143585 
	C335.622314,302.838562 336.607697,303.519806 336.629608,304.230774 
	C336.770996,308.821228 336.701996,313.418152 336.701996,317.984558 
	C323.151154,318.358551 323.151154,318.358551 321.797607,311.645020 
z"/>
<path fill="#3D845C" opacity="1.000000" stroke="none" 
	d="
M350.719025,312.773621 
	C349.138367,316.496918 347.857239,319.941132 346.235168,323.216553 
	C345.614594,324.469696 344.214325,325.336700 342.284088,326.022186 
	C347.848907,316.971100 340.209076,310.276733 338.909088,302.604095 
	C342.884186,300.905029 342.987183,304.206177 343.889984,306.254944 
	C344.803070,308.326996 345.520203,310.485443 346.417267,312.854462 
	C349.931519,309.667511 348.657776,303.559387 353.315338,301.778412 
	C353.782623,302.032684 354.249939,302.286957 354.717224,302.541229 
	C353.439026,305.836548 352.160797,309.131897 350.719025,312.773621 
z"/>
<path fill="#367D55" opacity="1.000000" stroke="none" 
	d="
M501.629578,303.023956 
	C504.120361,301.111633 505.198120,302.564728 505.978058,304.710632 
	C506.987274,307.487488 508.022491,310.254944 509.122040,313.230865 
	C512.322876,309.700409 511.447723,304.021637 516.549194,301.352722 
	C516.340698,308.864807 508.577301,325.044739 504.242920,325.867828 
	C510.067841,317.245972 503.561157,310.691742 501.629578,303.023956 
z"/>
<path fill="#2B774C" opacity="1.000000" stroke="none" 
	d="
M495.057007,317.491455 
	C490.722839,319.309601 487.141754,319.133911 485.111633,314.728119 
	C483.352081,310.909546 484.721405,303.337250 487.946777,301.933136 
	C487.946777,305.149200 487.461548,308.141846 488.122650,310.855164 
	C488.541595,312.574707 490.667694,313.878326 492.028137,315.368500 
	C493.326782,313.953888 495.251617,312.733978 495.767181,311.075867 
	C496.426422,308.955719 495.827667,306.471313 496.034393,304.167511 
	C496.098175,303.456970 497.023193,302.823700 497.553864,302.155060 
	C498.121063,302.797546 499.154144,303.422272 499.179474,304.085449 
	C499.337555,308.224762 499.536407,312.394958 499.191132,316.510437 
	C498.928558,319.639893 496.975281,318.454651 495.057007,317.491455 
z"/>
<path fill="#3D845C" opacity="1.000000" stroke="none" 
	d="
M595.541382,316.564087 
	C592.159485,319.160889 588.456848,319.941681 585.684937,317.282379 
	C583.690247,315.368713 582.397766,312.032379 582.115112,309.198700 
	C581.756653,305.604462 584.096680,302.787903 587.838135,302.139343 
	C591.767761,301.458130 595.475891,301.939423 597.622009,308.006927 
	C595.180298,306.966370 593.820435,306.024933 592.373169,305.862488 
	C590.598938,305.663361 587.429626,305.655853 587.180420,306.371857 
	C586.390747,308.641083 586.167847,311.433380 586.823486,313.706848 
	C587.059753,314.526306 590.423157,314.763031 592.332031,314.674072 
	C593.710815,314.609802 595.044006,313.568176 597.601501,312.423553 
	C596.589844,314.607758 596.199097,315.451447 595.541382,316.564087 
z"/>
<path fill="#317A51" opacity="1.000000" stroke="none" 
	d="
M604.367920,305.715546 
	C604.168274,307.268707 603.878784,308.506042 604.174866,309.582275 
	C604.878662,312.140350 605.859741,314.622131 607.028015,318.000061 
	C605.387512,319.315613 601.846802,318.974060 601.377747,316.233704 
	C600.475769,310.964203 598.366211,305.466583 600.666992,300.051575 
	C600.947327,299.391815 603.295898,298.796753 603.869690,299.236572 
	C605.287659,300.323517 606.231628,302.028717 607.870850,304.133636 
	C606.893433,304.484131 605.718811,304.905334 604.367920,305.715546 
z"/>
<path fill="#2B774C" opacity="1.000000" stroke="none" 
	d="
M557.791016,317.800629 
	C556.627808,317.529846 555.327026,317.046570 555.014465,316.198914 
	C554.582764,315.028198 554.892212,313.582764 554.891296,312.255005 
	C554.888916,308.979919 554.890503,305.704865 554.890503,302.787323 
	C557.733948,302.787323 560.052551,302.787323 563.589905,302.787323 
	C561.736938,304.846100 559.347168,306.420715 558.646118,308.551086 
	C557.749817,311.274841 558.215393,314.446808 557.791016,317.800629 
z"/>
<path fill="#2B774C" opacity="1.000000" stroke="none" 
	d="
M551.095093,311.969116 
	C550.523621,314.395355 549.952148,316.338409 549.380676,318.281464 
	C548.882507,316.418427 548.127197,314.579681 547.948425,312.686493 
	C547.701721,310.073212 547.734253,307.404907 547.969482,304.789154 
	C548.061523,303.765350 549.026611,302.820068 549.594055,301.839020 
	C550.094360,301.986206 550.594727,302.133392 551.095032,302.280579 
	C551.095032,305.349030 551.095032,308.417480 551.095093,311.969116 
z"/>
<path fill="#DFEDE6" opacity="1.000000" stroke="none" 
	d="
M369.226257,301.916443 
	C369.786469,301.432739 370.703949,300.980011 371.825745,300.717163 
	C371.214539,301.253784 370.399017,301.600586 369.226257,301.916443 
z"/>
<path fill="#DFEDE6" opacity="1.000000" stroke="none" 
	d="
M368.847839,304.007568 
	C368.643707,303.697449 368.504272,302.964203 368.623718,302.054077 
	C368.892609,302.446289 368.902588,303.015320 368.847839,304.007568 
z"/>
<path fill="#DFEDE6" opacity="1.000000" stroke="none" 
	d="
M370.823883,305.666870 
	C370.636017,305.817993 370.269501,305.747772 369.733276,305.443909 
	C369.924103,305.288696 370.284698,305.367096 370.823883,305.666870 
z"/>
<path fill="#DFEDE6" opacity="1.000000" stroke="none" 
	d="
M376.796021,307.835938 
	C376.582153,307.981293 376.204834,307.857910 375.640015,307.497253 
	C375.845886,307.362396 376.239197,307.464813 376.796021,307.835938 
z"/>
<path fill="#DFEDE6" opacity="1.000000" stroke="none" 
	d="
M378.826874,310.122559 
	C378.582703,310.156189 378.309357,309.886230 377.976379,309.325226 
	C378.210419,309.295776 378.504059,309.557373 378.826874,310.122559 
z"/>
<path fill="#83B299" opacity="1.000000" stroke="none" 
	d="
M374.933838,209.317169 
	C375.324036,209.149612 375.680328,209.287918 376.009705,209.727844 
	C375.621826,209.893997 375.260864,209.758530 374.933838,209.317169 
z"/>
<path fill="#83B299" opacity="1.000000" stroke="none" 
	d="
M381.293976,210.039612 
	C381.436707,209.588379 381.890106,209.163742 382.667236,208.871857 
	C382.528839,209.358459 382.066742,209.712326 381.293976,210.039612 
z"/>
<path fill="#DFEDE6" opacity="1.000000" stroke="none" 
	d="
M379.430481,313.600769 
	C379.029541,313.004944 379.098022,312.464203 379.577820,311.985596 
	C379.959351,312.583801 379.929657,313.119781 379.430481,313.600769 
z"/>
<path fill="#F3F9F6" opacity="1.000000" stroke="none" 
	d="
M622.344238,306.265656 
	C621.548035,301.854797 622.635742,298.040955 626.523560,296.899109 
	C629.254395,296.097046 633.410767,296.507629 635.480042,298.175903 
	C637.338135,299.673950 638.412292,304.019196 637.633972,306.385254 
	C636.856567,308.748566 633.605103,311.133575 630.981995,311.858673 
	C627.039001,312.948669 624.118958,310.355347 622.344238,306.265656 
z"/>
<path fill="#F3F9F6" opacity="1.000000" stroke="none" 
	d="
M531.020142,307.990784 
	C531.019653,305.541016 531.019653,303.563568 531.019653,299.946869 
	C534.573486,301.282684 538.431580,301.584198 539.931458,303.621735 
	C541.412842,305.634094 541.676331,310.166138 540.344910,312.196625 
	C538.833740,314.501160 534.959167,315.255859 531.020569,317.231934 
	C531.020569,313.056335 531.020569,310.759735 531.020142,307.990784 
z"/>
<path fill="#DFEDE6" opacity="1.000000" stroke="none" 
	d="
M309.324585,309.233795 
	C311.287964,309.511505 313.114685,309.406525 314.366028,310.204163 
	C316.570740,311.609497 315.874420,314.644989 313.179657,315.407196 
	C311.553345,315.867218 309.740173,315.666870 306.782257,315.831726 
	C307.677795,313.088898 308.303284,311.173248 309.324585,309.233795 
z"/>
<path fill="#DFEDE6" opacity="1.000000" stroke="none" 
	d="
M309.273254,300.392700 
	C312.003998,300.743561 315.545746,300.431274 314.668030,303.975037 
	C314.282410,305.531982 310.875183,306.340515 308.839874,307.488892 
	C308.302094,307.050720 307.764282,306.612579 307.226501,306.174408 
	C307.782898,304.257202 308.339325,302.339996 309.273254,300.392700 
z"/>
<path fill="#EFF6F2" opacity="1.000000" stroke="none" 
	d="
M415.194977,307.225037 
	C417.550476,304.555969 420.367950,303.913605 422.224915,306.454224 
	C423.404175,308.067719 423.702209,311.332581 422.838715,313.093414 
	C422.216919,314.361328 418.649719,315.345123 417.063477,314.731384 
	C414.020599,313.553986 413.651093,310.562347 415.194977,307.225037 
z"/>
<path fill="#DFEDE6" opacity="1.000000" stroke="none" 
	d="
M471.286652,309.245544 
	C472.699707,309.160645 473.939880,308.786652 474.640350,309.242310 
	C475.977234,310.111938 477.006439,311.454559 478.163330,312.600830 
	C476.919525,313.666992 475.814453,315.026825 474.385803,315.701843 
	C473.334595,316.198517 471.860107,315.799347 469.748260,315.799347 
	C470.182434,313.295868 470.526215,311.313477 471.286652,309.245544 
z"/>
<path fill="#DFEDE6" opacity="1.000000" stroke="none" 
	d="
M476.542969,301.264893 
	C478.298920,306.084259 477.022552,307.088043 470.330048,306.325775 
	C470.235352,305.466766 470.061157,304.535461 470.049774,303.602173 
	C470.038177,302.655914 470.187469,301.707733 470.313202,300.196503 
	C472.493591,300.512848 474.356689,300.783173 476.542969,301.264893 
z"/>
<path fill="#DFEDE6" opacity="1.000000" stroke="none" 
	d="
M568.481323,307.482330 
	C572.659119,303.668030 574.639587,304.023285 576.868164,309.444397 
	C573.690369,308.850769 571.017395,308.351410 568.481323,307.482330 
z"/>
</svg>